<svg width="46" height="46" viewBox="0 0 46 46" fill="none" xmlns="http://www.w3.org/2000/svg">
<path d="M0 23C0 10.2975 10.2975 0 23 0C35.7025 0 46 10.2975 46 23C46 35.7025 35.7025 46 23 46C10.2975 46 0 35.7025 0 23Z" fill="#0A0F13"/>
<path d="M23.002 17C24.5653 17 24.7661 17.0066 25.3877 17.0361C26.0226 17.0642 26.4672 17.1675 26.8604 17.3193C27.2745 17.4754 27.652 17.7213 27.9639 18.0371L27.791 18.2129L27.9668 18.04L28.0811 18.1582C28.3442 18.4454 28.5479 18.7792 28.6865 19.1455C28.8387 19.5371 28.9427 19.9843 28.9707 20.6191C28.9979 21.2386 29 21.4394 29 23.001C29 24.5645 28.993 24.7648 28.9658 25.3838C28.9378 26.0192 28.8346 26.464 28.6826 26.8574C28.3586 27.6954 27.6956 28.3585 26.8574 28.6826C26.4656 28.835 26.0182 28.9378 25.3828 28.9658C24.7636 28.9931 24.5638 29 23 29C21.4362 29 21.2363 28.9931 20.6172 28.9658C19.9819 28.9378 19.5369 28.8345 19.1436 28.6826C18.7291 28.5264 18.352 28.28 18.04 27.9639L18.2139 27.7891L18.0381 27.9619L18.0391 27.9639C17.7226 27.6519 17.476 27.2757 17.3174 26.8564C17.1653 26.465 17.0622 26.0182 17.0342 25.3838C17.007 24.7648 17 24.5645 17 23.001C17 21.4381 17.0066 21.2376 17.0361 20.6162C17.0642 19.9813 17.1675 19.5368 17.3193 19.1436C17.4561 18.7808 17.6617 18.4462 17.9229 18.1592L18.0371 18.041L18.2139 18.2129L18.04 18.0371C18.3524 17.7185 18.7277 17.4754 19.1455 17.3174C19.537 17.1654 19.9843 17.0622 20.6191 17.0342C21.2383 17.007 21.4384 17 23.002 17ZM23 20.1582C21.4312 20.1584 20.1584 21.4311 20.1582 23C20.1582 24.569 21.4311 25.8426 23 25.8428C24.5691 25.8428 25.8428 24.5691 25.8428 23C25.8426 21.431 24.569 20.1582 23 20.1582ZM26.4736 18.2627C25.7765 18.2629 25.2112 18.828 25.2109 19.5254C25.2109 20.2228 25.7763 20.7888 26.4736 20.7891C27.1713 20.7891 27.7373 20.223 27.7373 19.5254C27.7371 18.8279 27.1711 18.2627 26.4736 18.2627Z" fill="#EFF3F5"/>
</svg>
