<svg width="198" height="36" viewBox="0 0 198 36" fill="none" xmlns="http://www.w3.org/2000/svg">
<path d="M1.89949 26V2.41461H5.46105V22.945H16.1457V26H1.89949ZM24.7105 26.3641C23.0537 26.3641 21.6027 25.9842 20.3575 25.2244C19.1228 24.4646 18.1625 23.3987 17.4766 22.0269C16.8012 20.655 16.4636 19.0616 16.4636 17.2465C16.4636 15.4103 16.8012 13.8063 17.4766 12.4344C18.1625 11.052 19.1228 9.98093 20.3575 9.22113C21.6027 8.46134 23.0537 8.08144 24.7105 8.08144C26.3779 8.08144 27.8289 8.46134 29.0635 9.22113C30.2982 9.98093 31.2585 11.052 31.9444 12.4344C32.6304 13.8063 32.9733 15.4103 32.9733 17.2465C32.9733 19.0616 32.6304 20.655 31.9444 22.0269C31.2585 23.3987 30.2982 24.4646 29.0635 25.2244C27.8289 25.9842 26.3779 26.3641 24.7105 26.3641ZM24.7105 23.4673C25.7975 23.4673 26.6944 23.1824 27.4015 22.6126C28.1085 22.0427 28.6309 21.2882 28.9686 20.349C29.3168 19.3993 29.4909 18.3651 29.4909 17.2465C29.4909 16.1068 29.3168 15.0621 28.9686 14.1123C28.6309 13.1626 28.1085 12.4028 27.4015 11.8329C26.6944 11.2631 25.7975 10.9782 24.7105 10.9782C23.6341 10.9782 22.7424 11.2631 22.0354 11.8329C21.3389 12.4028 20.8166 13.1626 20.4683 14.1123C20.1201 15.0621 19.946 16.1068 19.946 17.2465C19.946 18.3651 20.1201 19.3993 20.4683 20.349C20.8166 21.2882 21.3389 22.0427 22.0354 22.6126C22.7424 23.1824 23.6341 23.4673 24.7105 23.4673ZM41.5381 32.9965C39.4276 32.9965 37.7655 32.6007 36.552 31.8093C35.3384 31.0178 34.4995 30.0786 34.0351 28.9917L36.9794 27.7729C37.1904 28.1105 37.4701 28.4693 37.8183 28.8492C38.1771 29.2291 38.6572 29.551 39.2587 29.8148C39.8603 30.0786 40.6359 30.2105 41.5856 30.2105C42.8836 30.2105 43.96 29.894 44.8148 29.2608C45.6695 28.6382 46.0969 27.6357 46.0969 26.2533V22.7867H45.8595C45.6695 23.156 45.3793 23.5729 44.9889 24.0372C44.5984 24.491 44.0655 24.8867 43.3902 25.2244C42.7148 25.5621 41.8336 25.7309 40.7467 25.7309C39.3537 25.7309 38.0979 25.4038 36.9794 24.7495C35.8713 24.0847 34.9849 23.1138 34.3201 21.8369C33.6658 20.5495 33.3387 18.9666 33.3387 17.0882C33.3387 15.2098 33.6605 13.6005 34.3042 12.2603C34.9585 10.9096 35.8449 9.8754 36.9635 9.15782C38.0821 8.44023 39.3537 8.08144 40.7783 8.08144C41.8758 8.08144 42.7623 8.26611 43.4376 8.63546C44.1236 8.99425 44.6565 9.41636 45.0364 9.90179C45.4163 10.3872 45.7118 10.8146 45.9228 11.1839H46.1761V8.30304H49.516V26.3957C49.516 27.9153 49.1625 29.1605 48.4555 30.1314C47.759 31.1023 46.8092 31.8198 45.6062 32.2842C44.4032 32.759 43.0472 32.9965 41.5381 32.9965ZM41.5065 22.8658C42.9944 22.8658 44.1341 22.354 44.9256 21.3304C45.7276 20.2962 46.1286 18.8663 46.1286 17.0407C46.1286 15.8483 45.9545 14.8035 45.6062 13.9066C45.258 12.999 44.7409 12.292 44.055 11.7855C43.369 11.2684 42.5195 11.0098 41.5065 11.0098C40.4723 11.0098 39.607 11.2789 38.9105 11.8171C38.2246 12.3447 37.7075 13.0676 37.3593 13.9857C37.011 14.8932 36.8369 15.9116 36.8369 17.0407C36.8369 18.191 37.011 19.2093 37.3593 20.0957C37.7075 20.9716 38.2299 21.6523 38.9263 22.1377C39.6334 22.6231 40.4934 22.8658 41.5065 22.8658ZM58.9356 26.3641C57.2788 26.3641 55.8278 25.9842 54.5826 25.2244C53.3479 24.4646 52.3876 23.3987 51.7017 22.0269C51.0263 20.655 50.6886 19.0616 50.6886 17.2465C50.6886 15.4103 51.0263 13.8063 51.7017 12.4344C52.3876 11.052 53.3479 9.98093 54.5826 9.22113C55.8278 8.46134 57.2788 8.08144 58.9356 8.08144C60.6029 8.08144 62.054 8.46134 63.2886 9.22113C64.5233 9.98093 65.4836 11.052 66.1695 12.4344C66.8555 13.8063 67.1984 15.4103 67.1984 17.2465C67.1984 19.0616 66.8555 20.655 66.1695 22.0269C65.4836 23.3987 64.5233 24.4646 63.2886 25.2244C62.054 25.9842 60.6029 26.3641 58.9356 26.3641ZM58.9356 23.4673C60.0225 23.4673 60.9195 23.1824 61.6266 22.6126C62.3336 22.0427 62.856 21.2882 63.1936 20.349C63.5419 19.3993 63.716 18.3651 63.716 17.2465C63.716 16.1068 63.5419 15.0621 63.1936 14.1123C62.856 13.1626 62.3336 12.4028 61.6266 11.8329C60.9195 11.2631 60.0225 10.9782 58.9356 10.9782C57.8592 10.9782 56.9675 11.2631 56.2605 11.8329C55.564 12.4028 55.0417 13.1626 54.6934 14.1123C54.3452 15.0621 54.171 16.1068 54.171 17.2465C54.171 18.3651 54.3452 19.3993 54.6934 20.349C55.0417 21.2882 55.564 22.0427 56.2605 22.6126C56.9675 23.1824 57.8592 23.4673 58.9356 23.4673ZM81.7321 26.3641C80.0331 26.3641 78.5663 25.9736 77.3316 25.1927C76.0969 24.4118 75.1472 23.3354 74.4823 21.9636C73.8175 20.5917 73.4851 19.0194 73.4851 17.2465C73.4851 15.442 73.8228 13.8538 74.4982 12.4819C75.1841 11.0995 76.1391 10.0231 77.3632 9.25279C78.5979 8.47189 80.0436 8.08144 81.7004 8.08144C83.0512 8.08144 84.2489 8.32943 85.2936 8.8254C86.3489 9.31083 87.1984 10.002 87.8421 10.899C88.4964 11.796 88.8816 12.8407 88.9976 14.0332H85.6419C85.5258 13.4739 85.2989 12.9621 84.9612 12.4978C84.6341 12.0334 84.2014 11.6641 83.6632 11.3897C83.125 11.1154 82.4866 10.9782 81.7479 10.9782C80.7876 10.9782 79.9487 11.2314 79.2311 11.738C78.524 12.2339 77.97 12.9463 77.569 13.8749C77.168 14.8035 76.9675 15.901 76.9675 17.1674C76.9675 18.4442 77.1627 19.5575 77.5532 20.5073C77.9436 21.457 78.4977 22.1905 79.2153 22.7075C79.9434 23.2141 80.7876 23.4673 81.7479 23.4673C82.7399 23.4673 83.5841 23.193 84.2806 22.6442C84.9876 22.0955 85.4414 21.3462 85.6419 20.3965H88.9976C88.8816 21.5467 88.5122 22.5704 87.8896 23.4673C87.267 24.3643 86.4333 25.0714 85.3886 25.5884C84.3439 26.1055 83.125 26.3641 81.7321 26.3641ZM97.5625 26.3641C95.9057 26.3641 94.4547 25.9842 93.2095 25.2244C91.9748 24.4646 91.0145 23.3987 90.3286 22.0269C89.6532 20.655 89.3155 19.0616 89.3155 17.2465C89.3155 15.4103 89.6532 13.8063 90.3286 12.4344C91.0145 11.052 91.9748 9.98093 93.2095 9.22113C94.4547 8.46134 95.9057 8.08144 97.5625 8.08144C99.2298 8.08144 100.681 8.46134 101.915 9.22113C103.15 9.98093 104.11 11.052 104.796 12.4344C105.482 13.8063 105.825 15.4103 105.825 17.2465C105.825 19.0616 105.482 20.655 104.796 22.0269C104.11 23.3987 103.15 24.4646 101.915 25.2244C100.681 25.9842 99.2298 26.3641 97.5625 26.3641ZM97.5625 23.4673C98.6494 23.4673 99.5464 23.1824 100.253 22.6126C100.96 22.0427 101.483 21.2882 101.82 20.349C102.169 19.3993 102.343 18.3651 102.343 17.2465C102.343 16.1068 102.169 15.0621 101.82 14.1123C101.483 13.1626 100.96 12.4028 100.253 11.8329C99.5464 11.2631 98.6494 10.9782 97.5625 10.9782C96.4861 10.9782 95.5944 11.2631 94.8873 11.8329C94.1909 12.4028 93.6685 13.1626 93.3203 14.1123C92.972 15.0621 92.7979 16.1068 92.7979 17.2465C92.7979 18.3651 92.972 19.3993 93.3203 20.349C93.6685 21.2882 94.1909 22.0427 94.8873 22.6126C95.5944 23.1824 96.4861 23.4673 97.5625 23.4673ZM107.014 26V8.30304H110.29V11.2156H110.528C110.897 10.2342 111.499 9.46912 112.332 8.92038C113.177 8.36108 114.179 8.08144 115.34 8.08144C116.522 8.08144 117.508 8.36108 118.3 8.92038C119.102 9.46912 119.698 10.2342 120.089 11.2156H120.279C120.701 10.2553 121.371 9.4955 122.289 8.93621C123.207 8.36636 124.299 8.08144 125.565 8.08144C127.169 8.08144 128.483 8.58797 129.507 9.60103C130.531 10.6035 131.042 12.1179 131.042 14.144V26H127.592V14.4606C127.592 13.2576 127.264 12.3922 126.61 11.8646C125.956 11.3264 125.175 11.0573 124.267 11.0573C123.149 11.0573 122.278 11.4056 121.656 12.102C121.044 12.788 120.738 13.6586 120.738 14.7138V26H117.287V14.239C117.287 13.2787 116.991 12.5083 116.4 11.9279C115.809 11.3475 115.034 11.0573 114.074 11.0573C113.419 11.0573 112.812 11.2314 112.253 11.5797C111.704 11.9174 111.261 12.3922 110.924 13.0043C110.596 13.6058 110.433 14.3023 110.433 15.0937V26H107.014ZM133.038 32.6166V8.30304H136.362V11.1839H136.647C136.858 10.8146 137.148 10.3872 137.518 9.90179C137.898 9.41636 138.425 8.99425 139.101 8.63546C139.776 8.26611 140.657 8.08144 141.744 8.08144C143.169 8.08144 144.435 8.44023 145.543 9.15782C146.662 9.8754 147.543 10.9148 148.187 12.2762C148.83 13.6375 149.152 15.2784 149.152 17.199C149.152 19.0985 148.836 20.7342 148.202 22.106C147.569 23.4673 146.693 24.5173 145.575 25.256C144.467 25.9842 143.195 26.3482 141.76 26.3482C140.694 26.3482 139.818 26.1688 139.132 25.8101C138.457 25.4407 137.924 25.0133 137.534 24.5279C137.154 24.0425 136.858 23.6151 136.647 23.2457H136.457V32.6166H133.038ZM141.016 23.4199C142.04 23.4199 142.894 23.1455 143.58 22.5967C144.266 22.048 144.783 21.304 145.132 20.3648C145.49 19.4151 145.67 18.3493 145.67 17.1674C145.67 15.996 145.496 14.946 145.147 14.0174C144.799 13.0887 144.282 12.3553 143.596 11.8171C142.91 11.2789 142.05 11.0098 141.016 11.0098C140.013 11.0098 139.169 11.2684 138.483 11.7855C137.797 12.292 137.275 13.0096 136.916 13.9382C136.568 14.8563 136.394 15.9327 136.394 17.1674C136.394 18.402 136.573 19.489 136.932 20.4281C137.291 21.3673 137.813 22.1008 138.499 22.6284C139.196 23.156 140.035 23.4199 141.016 23.4199ZM155.485 26.3799C154.366 26.3799 153.353 26.1741 152.446 25.7626C151.538 25.3405 150.821 24.7284 150.293 23.9264C149.765 23.1244 149.502 22.1482 149.502 20.998C149.502 19.9955 149.692 19.1776 150.071 18.5445C150.462 17.9008 150.984 17.389 151.639 17.0091C152.293 16.6292 153.021 16.3442 153.823 16.1543C154.625 15.9643 155.448 15.8166 156.292 15.7111C157.358 15.595 158.218 15.4947 158.872 15.4103C159.527 15.3259 160.002 15.194 160.297 15.0146C160.603 14.8246 160.756 14.5239 160.756 14.1123V14.0332C160.756 13.0307 160.471 12.255 159.901 11.7063C159.342 11.1576 158.508 10.8832 157.4 10.8832C156.25 10.8832 155.337 11.1365 154.662 11.643C153.997 12.139 153.538 12.7035 153.285 13.3367L150.04 12.5927C150.43 11.5164 150.995 10.651 151.734 9.99676C152.483 9.33194 153.338 8.84651 154.298 8.54048C155.269 8.23445 156.282 8.08144 157.337 8.08144C158.044 8.08144 158.793 8.16586 159.585 8.3347C160.376 8.49299 161.12 8.79375 161.817 9.23696C162.524 9.66962 163.099 10.2922 163.542 11.1048C163.985 11.9174 164.207 12.9674 164.207 14.2548V26H160.835V23.5781H160.709C160.498 24.0108 160.165 24.4435 159.711 24.8761C159.268 25.3088 158.698 25.6676 158.002 25.9525C157.305 26.2374 156.466 26.3799 155.485 26.3799ZM156.229 23.6256C157.189 23.6256 158.007 23.441 158.682 23.0716C159.358 22.6917 159.875 22.1957 160.234 21.5837C160.593 20.9716 160.772 20.3226 160.772 19.6367V17.3415C160.645 17.4576 160.408 17.5684 160.06 17.6739C159.711 17.7794 159.316 17.8691 158.872 17.943C158.429 18.0168 157.997 18.0854 157.574 18.1488C157.152 18.2015 156.799 18.2437 156.514 18.2754C155.849 18.3704 155.242 18.5181 154.694 18.7186C154.145 18.9086 153.702 19.1935 153.364 19.5734C153.037 19.9427 152.873 20.4334 152.873 21.0455C152.873 21.9003 153.19 22.544 153.823 22.9766C154.456 23.4093 155.258 23.6256 156.229 23.6256ZM169.638 15.5053V26H166.218V8.30304H169.543V11.2156H169.78C170.181 10.2553 170.809 9.4955 171.664 8.93621C172.518 8.36636 173.616 8.08144 174.956 8.08144C176.159 8.08144 177.209 8.3347 178.106 8.84123C179.014 9.33721 179.715 10.0812 180.211 11.0731C180.718 12.0651 180.971 13.2945 180.971 14.7613V26H177.552V15.1729C177.552 13.896 177.214 12.8935 176.539 12.1653C175.864 11.4267 174.946 11.0573 173.785 11.0573C172.993 11.0573 172.281 11.2367 171.648 11.5955C171.025 11.9437 170.534 12.445 170.176 13.0993C169.817 13.7535 169.638 14.5555 169.638 15.5053ZM184.486 32.6166C183.969 32.6271 183.5 32.5902 183.078 32.5058C182.666 32.4319 182.35 32.3422 182.128 32.2367L182.967 29.4349L183.204 29.4982C184.08 29.7198 184.819 29.704 185.42 29.4507C186.032 29.208 186.544 28.5274 186.956 27.4088L187.383 26.2374L180.925 8.30304H184.613L189.077 22.0427H189.267L193.747 8.30304H197.435L190.153 28.3427C189.816 29.2714 189.388 30.0523 188.871 30.6854C188.354 31.3291 187.731 31.8093 187.003 32.1259C186.286 32.453 185.447 32.6166 184.486 32.6166Z" fill="#0A0F13"/>
</svg>
