<svg width="22" height="23" viewBox="0 0 22 23" fill="none" xmlns="http://www.w3.org/2000/svg">
<path d="M16.5794 5.91952C17.6959 7.03601 17.6959 8.8462 16.5794 9.96269C16.1191 10.423 15.5409 10.6935 14.9421 10.7742C13.6023 10.9548 11.9761 10.8598 11.0201 11.8157C10.0642 12.7717 10.1592 14.3979 9.9785 15.7378C9.89774 16.3366 9.62721 16.9149 9.16691 17.3752C8.05042 18.4916 6.24024 18.4916 5.12375 17.3752C4.00726 16.2587 4.00726 14.4485 5.12375 13.332C5.58405 12.8717 6.16225 12.6012 6.76115 12.5204C8.10096 12.3397 9.72722 12.4347 10.6832 11.4788C11.6391 10.5228 11.5441 8.8966 11.7247 7.55679C11.8054 6.95795 12.0759 6.3798 12.5362 5.91952C13.6527 4.80304 15.4629 4.80304 16.5794 5.91952Z" fill="#0A0F13"/>
<path d="M16.5794 17.3752C15.4629 18.4916 13.6527 18.4916 12.5362 17.3752C12.0759 16.9149 11.8054 16.3367 11.7247 15.7379C11.5441 14.3981 11.6391 12.7719 10.6832 11.8159C9.72722 10.8599 8.10096 10.955 6.76115 10.7743C6.16225 10.6935 5.58405 10.423 5.12375 9.96269C4.00726 8.8462 4.00726 7.03601 5.12375 5.91952C6.24024 4.80304 8.05042 4.80304 9.16691 5.91952C9.62721 6.37982 9.89774 6.95803 9.9785 7.55692C10.1592 8.89673 10.0642 10.523 11.0201 11.479C11.9761 12.4349 13.6023 12.3398 14.9421 12.5205C15.5409 12.6012 16.1191 12.8717 16.5794 13.332C17.6959 14.4485 17.6959 16.2587 16.5794 17.3752Z" fill="#0A0F13"/>
</svg>
