<svg width="46" height="46" viewBox="0 0 46 46" fill="none" xmlns="http://www.w3.org/2000/svg">
<rect width="46" height="46" rx="23" fill="#0A0F13"/>
<path d="M26.7547 19.5664C26.6768 19.5245 26.601 19.4786 26.5275 19.4289C26.3139 19.282 26.1181 19.1089 25.9442 18.9134C25.5091 18.3957 25.3467 17.8705 25.2868 17.5027H25.2892C25.2392 17.1975 25.2599 17 25.263 17H23.2815V24.9691C23.2815 25.0761 23.2815 25.1818 23.2772 25.2863C23.2772 25.2993 23.2759 25.3113 23.2752 25.3253C23.2752 25.3311 23.2752 25.3371 23.274 25.3431C23.274 25.3446 23.274 25.3461 23.274 25.3476C23.2531 25.6335 23.165 25.9097 23.0174 26.1519C22.8698 26.3941 22.6672 26.5949 22.4275 26.7365C22.1776 26.8843 21.8951 26.9619 21.6076 26.9615C20.6844 26.9615 19.9361 26.1785 19.9361 25.2116C19.9361 24.2446 20.6844 23.4617 21.6076 23.4617C21.7824 23.4615 21.9561 23.4901 22.1222 23.5464L22.1246 21.448C21.6202 21.3803 21.1077 21.422 20.6196 21.5705C20.1314 21.719 19.6781 21.9711 19.2884 22.311C18.9468 22.6196 18.6597 22.9879 18.4399 23.3992C18.3562 23.5492 18.0406 24.1519 18.0024 25.1301C17.9784 25.6853 18.1387 26.2605 18.2151 26.4983V26.5033C18.2632 26.6433 18.4495 27.121 18.7531 27.5237C18.9979 27.8468 19.2871 28.1306 19.6114 28.3659V28.3609L19.6162 28.3659C20.5755 29.0439 21.6391 28.9994 21.6391 28.9994C21.8232 28.9917 22.44 28.9994 23.1404 28.6542C23.9172 28.2714 24.3595 27.7012 24.3595 27.7012C24.642 27.3605 24.8667 26.9722 25.0239 26.553C25.2032 26.0628 25.263 25.4748 25.263 25.2398V21.012C25.287 21.027 25.6072 21.2473 25.6072 21.2473C25.6072 21.2473 26.0685 21.5548 26.7881 21.755C27.3044 21.8975 28 21.9275 28 21.9275V19.8816C27.7563 19.9091 27.2614 19.8291 26.7547 19.5664Z" fill="#EFF3F5"/>
</svg>
