<svg width="46" height="46" viewBox="0 0 46 46" fill="none" xmlns="http://www.w3.org/2000/svg">
<rect width="46" height="46" rx="23" fill="#0A0F13"/>
<path d="M23.002 18.5C23.0259 18.5001 25.4214 18.5157 27.0078 18.6299L27.0293 18.6318C27.0471 18.6342 27.0671 18.6372 27.0889 18.6396C27.352 18.6693 27.8992 18.7307 28.3818 19.2393C28.7995 19.672 28.901 20.5235 28.9111 20.6191L28.9121 20.624C28.9157 20.6639 28.9999 21.6114 29 22.5625V23.4521C29 24.4032 28.9157 25.3507 28.9121 25.3906L28.9102 25.4023C28.8984 25.4961 28.7835 26.3288 28.3857 26.7568C27.9085 27.2766 27.3701 27.3331 27.1113 27.3604C27.0867 27.3629 27.0639 27.3655 27.0439 27.3682L27.0225 27.3701C25.436 27.4843 23.0406 27.4999 23.0166 27.5H23.0098C22.888 27.4983 20.0156 27.4554 19.0996 27.3691L19.0723 27.3652C19.0436 27.3602 19.0009 27.3561 18.9521 27.3506C18.6435 27.3156 18.0699 27.2502 17.6162 26.7588C17.2008 26.3263 17.0992 25.4918 17.0889 25.3965L17.0879 25.3906C17.0843 25.3507 17 24.4032 17 23.4521V22.5625C17 21.6114 17.0843 20.6638 17.0879 20.624L17.0898 20.6123C17.1017 20.5187 17.2165 19.6859 17.6143 19.2578C18.0984 18.7305 18.6402 18.6684 18.9004 18.6387C18.9206 18.6363 18.9392 18.6341 18.9561 18.6318L18.9775 18.6299C20.5782 18.5157 22.9741 18.5001 22.998 18.5H23.002ZM22.1221 21.2061C21.9615 21.1258 21.7716 21.1287 21.6143 21.2139C21.4572 21.2991 21.3634 21.4493 21.3633 21.6162V24.3838C21.3633 24.5502 21.4569 24.7008 21.6133 24.7861C21.6949 24.8307 21.7853 24.8535 21.876 24.8535C21.9591 24.8535 22.0425 24.8346 22.1191 24.7969L24.9111 23.4248C25.0767 23.3434 25.1807 23.1865 25.1816 23.0146C25.1823 22.8427 25.0801 22.6842 24.915 22.6016L22.1221 21.2061Z" fill="#EFF3F5"/>
</svg>
